<svg width="32" height="32" viewBox="0 0 32 32" fill="none" xmlns="http://www.w3.org/2000/svg">
<rect width="32" height="32" rx="12" fill="url(#paint0_linear_5320_8927)"/>
<path d="M23.6424 9.75059C24.0547 9.40936 23.8138 8.73926 23.278 8.73926H14.9697C11.4647 8.73926 8.61295 11.5926 8.61295 15.1006C8.61295 16.8793 9.3479 18.4866 10.5275 19.6431C10.7684 19.8793 10.7468 20.2715 10.4874 20.4861L8.35664 22.2494C7.94439 22.5906 8.18526 23.2607 8.72103 23.2607H17.0294C20.5343 23.2607 23.3877 20.4074 23.3877 16.8978C23.3877 15.1207 22.6527 13.5118 21.4731 12.3553C21.2322 12.1207 21.2538 11.7269 21.5117 11.5123L23.6424 9.74905V9.75059ZM16.9584 19.9843H12.5409C12.1132 19.9843 11.9202 19.4486 12.2507 19.1753L13.2388 18.3585C13.4751 18.1639 13.4519 17.8026 13.2002 17.6266C12.3695 17.0414 11.8384 16.0564 11.8909 14.9524C11.9681 13.2957 13.3809 12.0157 15.0391 12.0157H19.4566C19.8843 12.0157 20.0773 12.5514 19.7469 12.8247L18.7602 13.6415C18.524 13.8361 18.5472 14.1974 18.7988 14.3734C19.6295 14.9586 20.1607 15.9436 20.1082 17.0476C20.0294 18.7043 18.6166 19.9843 16.9584 19.9843Z" fill="white"/>
<defs>
<linearGradient id="paint0_linear_5320_8927" x1="16" y1="4.02331e-07" x2="29.5" y2="28.5" gradientUnits="userSpaceOnUse">
<stop offset="0.578126" stop-color="#27BDBE"/>
<stop offset="1" stop-color="#94F440"/>
</linearGradient>
</defs>
</svg>
